Coordinates
version=1
nRows=8
nColumns=40
inDegrees=yes

Units are S.I. units (second, meters, Newtons, ...)
Angles are in degrees.

endheader
time	pelvis_tilt	pelvis_list	pelvis_rotation	pelvis_tx	pelvis_ty	pelvis_tz	hip_flexion_r	hip_adduction_r	hip_rotation_r	knee_angle_r	knee_angle_r_beta	ankle_angle_r	subtalar_angle_r	mtp_angle_r	hip_flexion_l	hip_adduction_l	hip_rotation_l	knee_angle_l	knee_angle_l_beta	ankle_angle_l	subtalar_angle_l	mtp_angle_l	lumbar_extension	lumbar_bending	lumbar_rotation	arm_flex_r	arm_add_r	arm_rot_r	elbow_flex_r	pro_sup_r	wrist_flex_r	wrist_dev_r	arm_flex_l	arm_add_l	arm_rot_l	elbow_flex_l	pro_sup_l	wrist_flex_l	wrist_dev_l
      3.36500000	     -3.44932710	     -5.59454777	     -0.59367383	      0.93798827	      0.92542093	      0.48291744	     19.26825620	      2.52793847	    -14.39882042	     19.15765139	     19.15765139	      5.16739685	     -4.34030394	     -2.67796643	      4.36498072	    -12.00451190	     -9.31871689	     39.09978858	     39.09978858	      9.96697244	    -12.83550075	    -14.46693620	     -6.91806686	      4.59164522	      1.81266979	     -5.94807854	    -12.55356107	     -6.05515798	     33.31031829	     46.04777415	      0.00000000	      0.00000000	      9.94319277	    -10.34928798	     -9.28012453	     55.58771369	     47.16461565	      0.00000000	      0.00000000
      3.37742857	     -3.26644330	     -5.82971078	     -0.40300974	      0.93811107	      0.92617637	      0.48576658	     18.38836807	      2.94853557	    -14.71698246	     18.90207048	     18.90207048	      5.58771788	     -4.07939987	     -2.82272749	      6.25957703	    -12.85808436	     -8.15502484	     43.26293586	     43.26293586	      7.59541625	    -14.26849673	    -14.51720093	     -7.18400334	      4.72764489	      1.82516693	     -4.35887563	    -12.63113230	     -5.83699829	     34.70413503	     45.98777096	      0.00000000	      0.00000000	      9.23958495	    -10.24782877	     -9.12784922	     53.94365933	     47.12339106	      0.00000000	      0.00000000
      3.38985714	     -3.30968678	     -5.92787342	     -0.15124874	      0.93790431	      0.92650407	      0.48814601	     17.77743176	      3.16368216	    -15.10781758	     18.65627432	     18.65627432	      5.98442562	     -3.63657721	     -3.19256801	      8.56101590	    -13.28976972	     -6.55448325	     47.37255552	     47.37255552	      5.00944684	    -16.16989333	    -13.91025240	     -7.09167879	      4.84917335	      2.36384573	     -4.88027921	    -13.78711391	     -2.47049449	     41.04081320	     45.54038717	      0.00000000	      0.00000000	     10.27020347	     -9.76813157	     -8.52983127	     47.99157401	     46.97300548	      0.00000000	      0.00000000
      3.40228571	     -3.31977731	     -6.07665390	      0.06252311	      0.93753371	      0.92669514	      0.49053854	     17.18688579	      3.44856669	    -15.44299935	     18.49344379	     18.49344379	      6.41149276	     -3.30883070	     -3.41743395	     10.99317330	    -13.71646444	     -4.98337283	     51.63519724	     51.63519724	      3.53496374	    -16.86279374	    -10.69640588	     -7.10823615	      4.95765588	      2.38434690	     -3.77589301	    -14.24589244	     -1.76561227	     43.94925380	     45.40986549	      0.00000000	      0.00000000	     10.08274443	     -9.64730142	     -8.23791253	     44.69571753	     46.89171080	      0.00000000	      0.00000000
      3.41471429	     -3.34677190	     -6.19631310	      0.28911141	      0.93691751	      0.92676334	      0.49265797	     16.67235007	      3.68580782	    -15.71454480	     18.39808313	     18.39808313	      6.82122336	     -3.09491402	     -3.56580941	     13.50444612	    -13.94583437	     -3.35180990	     55.69923269	     55.69923269	      2.52248642	    -17.20055004	     -6.54520139	     -7.13541934	      5.02598253	      2.42477305	     -2.65458709	    -14.70373159	     -1.35651775	     47.15020474	     45.28904586	      0.00000000	      0.00000000	      9.78185991	     -9.47111953	     -7.87554568	     41.78633451	     46.80747067	      0.00000000	      0.00000000
      3.42714286	     -3.36554222	     -6.30399247	      0.49846267	      0.93612636	      0.92677377	      0.49463454	     16.19653745	      3.91051004	    -15.91676376	     18.36306943	     18.36306943	      7.27666876	     -2.97375223	     -3.65285441	     15.98853436	    -14.03589655	     -1.77264201	     59.41661725	     59.41661725	      1.93856322	    -17.31035721	     -1.95757477	     -7.20522710	      5.07711513	      2.56618193	     -1.56408460	    -15.20891920	     -1.09950587	     50.50258750	     45.17950278	      0.00000000	      0.00000000	      9.52922845	     -9.30278110	     -7.44025493	     38.97656372	     46.71305165	      0.00000000	      0.00000000
      3.43957143	     -3.24140558	     -6.42903966	      0.63376684	      0.93525847	      0.92698743	      0.49660078	     15.56076083	      4.19282042	    -15.93669026	     18.29978615	     18.29978615	      7.70525772	     -2.91656805	     -3.76665746	     18.02225869	    -14.20955887	     -0.59138441	     62.29770882	     62.29770882	      0.26707124	    -17.81402895	     -1.36557213	     -7.47631577	      5.09714691	      2.86712290	      0.46815446	    -15.50994084	     -1.34626179	     51.69788816	     45.15970292	      0.00000000	      0.00000000	      8.76579649	     -9.04627765	     -7.29697621	     38.21992353	     46.68049258	      0.00000000	      0.00000000
      3.45200000	     -3.39759696	     -6.42588258	      0.88446042	      0.93407921	      0.92682779	      0.49800933	     15.33031395	      4.24858830	    -16.10788994	     18.39175722	     18.39175722	      8.18594764	     -2.94866251	     -3.70428614	     20.62422796	    -13.85343434	      0.95097760	     65.26350807	     65.26350807	      1.13468378	    -17.64885780	      4.97049162	     -7.41194981	      5.08788835	      2.66986832	      1.10266653	    -16.18879087	     -0.75853114	     56.97412913	     44.97322111	      0.00000000	      0.00000000	      8.55363833	     -9.02479888	     -6.69712955	     34.40367860	     46.56670976	      0.00000000	      0.00000000
